<svg width="81" height="80" viewBox="0 0 81 80" fill="none" xmlns="http://www.w3.org/2000/svg">
<path d="M41.0752 73.8466C69.3632 63.4798 69.1761 39.0638 69.1761 39.0638V12.6491C69.1761 12.6491 48.8192 13.8983 41.0752 6.1543C33.3324 13.8983 12.9743 12.6491 12.9743 12.6491V39.0638C12.9743 39.0638 12.7872 63.4811 41.0752 73.8466Z" fill="#25A75C" stroke="#22202D" stroke-width="1.52426" stroke-miterlimit="10" stroke-linecap="round" stroke-linejoin="round"/>
<path d="M40.2629 64.0421C22.0857 55.4871 21.7164 39.6877 21.7164 39.0625V21.3234L23.4026 21.2003C29.2183 20.8493 34.9264 19.4744 40.2641 17.1388L41.0764 16.7695L41.8887 17.1388C47.2264 19.4744 52.9345 20.8493 58.7503 21.2003L60.4364 21.3234V39.0588C60.4364 39.7455 60.0672 55.4821 41.89 64.0434L41.0777 64.4126L40.2629 64.0421Z" fill="#F7F7F7" stroke="#22202D" stroke-width="1.52426" stroke-linecap="round" stroke-linejoin="round"/>
<path d="M28.6481 39.0637L36.3921 46.7425L53.4998 29.6348" stroke="#25A75C" stroke-width="4.57277" stroke-miterlimit="10" stroke-linecap="round" stroke-linejoin="round"/>
</svg>
