<svg width="80" height="80" viewBox="0 0 80 80" fill="none" xmlns="http://www.w3.org/2000/svg">
<path d="M56.6154 6.1543H19.6923C17.6531 6.1543 16 7.8074 16 9.84661V70.1543C16 72.1935 17.6531 73.8466 19.6923 73.8466H56.6154C58.6546 73.8466 60.3077 72.1935 60.3077 70.1543V9.84661C60.3077 7.8074 58.6546 6.1543 56.6154 6.1543Z" fill="#25A75C"/>
<path d="M56.6154 6.76953H19.6923C17.9929 6.76953 16.6154 8.14712 16.6154 9.84645V70.1541C16.6154 71.8535 17.9929 73.2311 19.6923 73.2311H56.6154C58.3147 73.2311 59.6923 71.8535 59.6923 70.1541V9.84645C59.6923 8.14712 58.3147 6.76953 56.6154 6.76953Z" stroke="#22202D" stroke-width="1.52426"/>
<path d="M50.4615 12.3086H25.8461C23.8069 12.3086 22.1538 13.9617 22.1538 16.0009V59.0778C22.1538 61.117 23.8069 62.7701 25.8461 62.7701H50.4615C52.5007 62.7701 54.1538 61.117 54.1538 59.0778V16.0009C54.1538 13.9617 52.5007 12.3086 50.4615 12.3086Z" fill="#F7F7F7"/>
<path d="M50.4615 12.9238H25.8461C24.1468 12.9238 22.7692 14.3014 22.7692 16.0008V59.0777C22.7692 60.777 24.1468 62.1546 25.8461 62.1546H50.4615C52.1608 62.1546 53.5384 60.777 53.5384 59.0777V16.0008C53.5384 14.3014 52.1608 12.9238 50.4615 12.9238Z" stroke="#22202D" stroke-width="1.52426"/>
<path d="M32.9575 66.8906H43.3489" stroke="white" stroke-width="3.04851" stroke-linecap="round"/>
<path d="M53.9619 51.9411C52.3078 53.0636 44.4678 52.4556 45.5927 52.4125C46.4825 52.378 48.5342 50.6033 49.5201 49.7048C46.4899 47.4761 44.4079 44.19 43.6871 40.4982C42.9663 36.8064 43.6593 32.9785 45.6286 29.7737C47.5979 26.5689 50.6998 24.2212 54.319 23.1963C57.9381 22.1714 61.8104 22.5441 65.1676 24.2404C68.5249 25.9368 71.1221 28.833 72.444 32.3545C73.766 35.8761 73.7162 39.7659 72.3045 43.2525C70.8928 46.739 68.2224 49.5677 64.8227 51.1776C61.4231 52.7874 57.5426 53.0608 53.9509 51.9436L53.9619 51.9411Z" fill="white" stroke="#22202D" stroke-width="1.52426" stroke-linecap="round" stroke-linejoin="round"/>
</svg>
