<svg width="81" height="80" viewBox="0 0 81 80" fill="none" xmlns="http://www.w3.org/2000/svg">
<path d="M27.7449 51.7214C39.4853 51.7214 49.0028 42.3472 49.0028 30.7835C49.0028 19.2199 39.4853 9.8457 27.7449 9.8457C16.0045 9.8457 6.48706 19.2199 6.48706 30.7835C6.48706 42.3472 16.0045 51.7214 27.7449 51.7214Z" fill="#25A75C" stroke="#22202D" stroke-width="1.52426"/>
<path d="M27.7449 46.4566C36.5332 46.4566 43.6575 39.4397 43.6575 30.7839C43.6575 22.1282 36.5332 15.1113 27.7449 15.1113C18.9566 15.1113 11.8323 22.1282 11.8323 30.7839C11.8323 39.4397 18.9566 46.4566 27.7449 46.4566Z" fill="white" stroke="#22202D" stroke-width="1.52426"/>
<path d="M20.3838 30.7837H27.8459V21.377" stroke="#22202D" stroke-width="1.52426" stroke-linecap="round" stroke-linejoin="round"/>
<path d="M27.7449 15.2646V18.3416" stroke="#22202D" stroke-width="1.52426" stroke-linecap="round"/>
<path d="M27.7449 43.8174V46.5558" stroke="#22202D" stroke-width="1.52426" stroke-linecap="round"/>
<path d="M12.0994 30.9102H15.1763" stroke="#22202D" stroke-width="1.52426" stroke-linecap="round"/>
<path d="M40.6521 30.9102H43.3893" stroke="#22202D" stroke-width="1.52426" stroke-linecap="round"/>
<path d="M74.1794 45.5381H21.2563V73.8458H74.1794V45.5381Z" fill="#25A75C" stroke="#22202D" stroke-width="1.52426" stroke-linecap="round" stroke-linejoin="round"/>
<path d="M70.7147 65.6201V52.1825C69.6966 52.1825 68.7202 51.7781 68.0003 51.0582C67.2803 50.3383 66.8759 49.3619 66.8759 48.3438H28.4845C28.4845 49.3619 28.0801 50.3383 27.3602 51.0582C26.6403 51.7781 25.6639 52.1825 24.6458 52.1825V65.6201C25.6639 65.6201 26.6403 66.0245 27.3602 66.7444C28.0801 67.4643 28.4845 68.4407 28.4845 69.4588H66.8759C66.8759 68.4407 67.2803 67.4643 68.0003 66.7444C68.7202 66.0245 69.6966 65.6201 70.7147 65.6201Z" fill="#F7F7F7" stroke="#22202D" stroke-width="1.52426" stroke-linecap="round" stroke-linejoin="round"/>
<path d="M47.6797 69.4588C52.0525 69.4588 55.5973 64.7321 55.5973 58.9013C55.5973 53.0705 52.0525 48.3438 47.6797 48.3438C43.307 48.3438 39.7622 53.0705 39.7622 58.9013C39.7622 64.7321 43.307 69.4588 47.6797 69.4588Z" fill="#25A75C" stroke="#22202D" stroke-width="1.52426"/>
<path d="M62.487 60.3075C63.5066 60.3075 64.3332 59.481 64.3332 58.4614C64.3332 57.4418 63.5066 56.6152 62.487 56.6152C61.4674 56.6152 60.6409 57.4418 60.6409 58.4614C60.6409 59.481 61.4674 60.3075 62.487 60.3075Z" fill="#25A75C" stroke="#22202D" stroke-width="1.52426"/>
<path d="M32.9487 60.3075C33.9683 60.3075 34.7948 59.481 34.7948 58.4614C34.7948 57.4418 33.9683 56.6152 32.9487 56.6152C31.9291 56.6152 31.1025 57.4418 31.1025 58.4614C31.1025 59.481 31.9291 60.3075 32.9487 60.3075Z" fill="#25A75C" stroke="#22202D" stroke-width="1.52426"/>
<path d="M53.4275 66.1486C52.4769 65.2497 51.3053 64.6183 50.0318 64.3185C49.9231 64.3008 49.8245 64.2441 49.7547 64.1588C49.6849 64.0736 49.6486 63.9658 49.6528 63.8557C49.6638 63.6095 49.6638 63.3437 49.6626 63.0692C49.6626 62.4391 50.4208 61.6797 50.4626 60.796C50.6956 60.3475 50.8307 59.8545 50.8589 59.3499C50.8679 59.2504 50.8566 59.1501 50.8257 59.0551C50.7948 58.9601 50.745 58.8724 50.6792 58.7972C50.7408 58.4674 50.7937 58.1191 50.8589 57.7609C51.0452 57.172 50.991 56.5334 50.7081 55.9843C50.4251 55.4353 49.9365 55.0205 49.3488 54.8305C48.2654 54.6296 47.2283 54.2312 46.2891 53.6551C46.0331 53.4089 46.2091 54.8022 45.9764 54.9068C45.4083 55.0983 44.9368 55.5029 44.6612 56.0354C44.3857 56.5679 44.3277 57.1865 44.4995 57.7609C44.5635 58.1191 44.6226 58.4674 44.6792 58.7972C44.6134 58.8724 44.5636 58.9601 44.5327 59.0551C44.5018 59.1501 44.4905 59.2504 44.4995 59.3499C44.5277 59.8545 44.6628 60.3475 44.8958 60.796C44.9377 61.6809 45.6958 62.396 45.6958 63.0692C45.6958 63.3437 45.6958 63.6071 45.7057 63.8557C45.7098 63.9658 45.6735 64.0736 45.6037 64.1588C45.5339 64.2441 45.4354 64.3008 45.3266 64.3185C44.0531 64.6183 42.8816 65.2497 41.9309 66.1486C42.5501 67.1238 43.3965 67.9344 44.3975 68.511C45.3985 69.0876 46.5243 69.413 47.6786 69.4594C48.8329 69.413 49.9587 69.0876 50.9597 68.511C51.9607 67.9344 52.8071 67.1238 53.4263 66.1486H53.4275Z" fill="#F7F7F7" stroke="#22202D" stroke-width="1.52426" stroke-linecap="round" stroke-linejoin="round"/>
</svg>
